<svg xmlns="http://www.w3.org/2000/svg" viewBox="0 0 240 240" role="img" aria-label="Aprovecho"><title>Aprovecho</title><rect width="240" height="240" fill="#FFFFFF"/><g transform="translate(120 120) scale(0.8) translate(-120 -120)"><path d="M90.76 215.63A100 100 0 0 1 106.08 20.97M149.24 24.37A100 100 0 0 1 150.9 215.11" fill="none" stroke="#2F6B34" stroke-width="17"/><path d="M103.13 -0.07L144.87 23.14L109.04 42.02ZM157.47 235.32L112.32 219.7L144.34 194.9Z" fill="#2F6B34"/><circle cx="120" cy="120" r="52" fill="#91B06B"/><g transform="translate(120 120) scale(1.2) translate(-120 -120)"><path d="M91 124C91 108 105 101 120 101C137 101 151 108 151 122C151 132 141 137 120 137C100 137 91 134 91 124Z" fill="#C8DCAF" stroke="#2F6B34" stroke-width="3.99" stroke-linejoin="round"/><path d="M105 110C109 114 110 120 108 127M119 107C123 112 124 120 122 129M133 109C137 113 138 119 136 126" fill="none" stroke="#2F6B34" stroke-width="3.23" stroke-linecap="round"/><g transform="translate(132 166) rotate(50)"><path d="M0 0Q20 -23 0 -48Q-20 -23 0 0Z" fill="#2F6B34"/><path d="M0 -4V-39" stroke="#91B06B" stroke-width="2.28" stroke-linecap="round"/></g></g></g></svg>
